<?xml version="1.0" encoding="utf-8"?>
<!-- created with bpmn-js / http://bpmn.io -->
<!DOCTYPE svg PUBLIC "-//W3C//DTD SVG 1.1//EN" "http://www.w3.org/Graphics/SVG/1.1/DTD/svg11.dtd">
<svg xmlns="http://www.w3.org/2000/svg" xmlns:xlink="http://www.w3.org/1999/xlink" width="795" height="390" viewBox="117 44 795 390" version="1.1"><defs><marker viewBox="0 0 20 20" markerWidth="10" markerHeight="10" orient="auto" refX="11" refY="10" id="markerSiswudza99"><path d="M 1 5 L 11 10 L 1 15 Z" style="stroke-width: 1; stroke-linecap: round; stroke-dasharray: 10000, 1;" fill="#000000"/></marker><marker viewBox="0 0 20 20" markerWidth="20" markerHeight="20" orient="auto" refX="6" refY="6" id="markerSiswudza9b"><circle cx="6" cy="6" r="3.5" style="stroke-width: 1; stroke-linecap: round; stroke-dasharray: 10000, 1;" fill="#ffffff" stroke="#000000"/></marker><marker viewBox="0 0 20 20" markerWidth="20" markerHeight="20" orient="auto" refX="8.5" refY="5" id="markerSiswudza9d"><path d="m 1 5 l 0 -3 l 7 3 l -7 3 z" fill="#ffffff" stroke="#000000" style="stroke-width: 1; stroke-linecap: butt; stroke-dasharray: 10000, 1;"/></marker><marker viewBox="0 0 20 20" markerWidth="10" markerHeight="10" orient="auto" refX="1" refY="10" id="markerSiswudza9f"><path d="M 11 5 L 1 10 L 11 15" fill="none" stroke="#000000" style="stroke-width: 1.5; stroke-linecap: round; stroke-dasharray: 10000, 1;"/></marker><marker viewBox="0 0 20 20" markerWidth="10" markerHeight="10" orient="auto" refX="12" refY="10" id="markerSiswudza9h"><path d="M 1 5 L 11 10 L 1 15" fill="none" stroke="#000000" style="stroke-width: 1.5; stroke-linecap: round; stroke-dasharray: 10000, 1;"/></marker><marker viewBox="0 0 20 20" markerWidth="10" markerHeight="10" orient="auto" refX="-1" refY="10" id="markerSiswudza9j"><path d="M 0 10 L 8 6 L 16 10 L 8 14 Z" fill="#ffffff" stroke="#000000" style="stroke-width: 1; stroke-linecap: round; stroke-dasharray: 10000, 1;"/></marker><marker viewBox="0 0 20 20" markerWidth="10" markerHeight="10" orient="auto" refX="-5" refY="10" id="markerSiswudza9l"><path d="M 1 4 L 5 16" fill="#000000" stroke="#000000" style="stroke-width: 1; stroke-linecap: round; stroke-dasharray: 10000, 1;"/></marker></defs><g class="djs-group" xmlns="http://www.w3.org/2000/svg"><g data-element-id="Participant_088vltj" class="djs-element djs-shape" transform="matrix(1,0,0,1,123,50)" style="display: block;"><g class="djs-visual"><rect x="0" y="0" width="783" height="378" rx="0" ry="0" stroke="#000000" style="stroke-width: 2; fill-opacity: 0.95;" fill="#ffffff"></rect><polyline points="30,0 30,378 " fill="none" stroke="#000000" style="stroke-width: 2;"></polyline><text class=" djs-label" transform="matrix(0,-1,1,0,0,378)" style="font-family: Arial, sans-serif; font-size: 12px;"><tspan x="160" y="18">add a todo</tspan></text></g><rect x="0" y="0" width="783" height="378" fill="none" stroke="#ffffff" style="stroke-opacity: 0; stroke-width: 15;" class="djs-hit"></rect><rect x="-6" y="-6" width="795" height="390" fill="none" class="djs-outline"></rect></g><g class="djs-children"><g class="djs-group"><g data-element-id="Lane_0721ahv" class="djs-element djs-shape hover" transform="matrix(1,0,0,1,153,50)" style="display: block;"><g class="djs-visual"><rect x="0" y="0" width="753" height="187" rx="0" ry="0" stroke="#000000" fill="none" style="stroke-width: 2;"></rect><text class=" djs-label" transform="matrix(0,-1,1,0,0,187)" style="font-family: Arial, sans-serif; font-size: 12px;"><tspan x="81" y="18">user</tspan></text></g><rect x="0" y="0" width="753" height="187" fill="none" stroke="#ffffff" style="stroke-opacity: 0; stroke-width: 15;" class="djs-hit"></rect><rect x="-6" y="-6" width="765" height="199" fill="none" class="djs-outline"></rect></g></g><g class="djs-group"><g data-element-id="Lane_0ybyt3z" class="djs-element djs-shape" transform="matrix(1,0,0,1,153,237)" style="display: block;"><g class="djs-visual"><rect x="0" y="0" width="753" height="191" rx="0" ry="0" stroke="#000000" fill="none" style="stroke-width: 2;"></rect><text class=" djs-label" transform="matrix(0,-1,1,0,0,191)" style="font-family: Arial, sans-serif; font-size: 12px;"><tspan x="75.5" y="18">system</tspan></text></g><rect x="0" y="0" width="753" height="191" fill="none" stroke="#ffffff" style="stroke-opacity: 0; stroke-width: 15;" class="djs-hit"></rect><rect x="-6" y="-6" width="765" height="203" fill="none" class="djs-outline"></rect></g></g><g class="djs-group"><g data-element-id="StartEvent_1" transform="matrix(1,0,0,1,207,122)" class="djs-element djs-shape" style="display: block;"><g class="djs-visual"><circle cx="18" cy="18" r="18" stroke="#000000" fill="#ffffff" style="stroke-width: 2;"></circle></g><rect x="0" y="0" width="36" height="36" fill="none" stroke="#ffffff" style="stroke-opacity: 0; stroke-width: 15;" class="djs-hit"></rect><rect x="-6" y="-6" width="48" height="48" fill="none" class="djs-outline"></rect></g></g><g class="djs-group"><g data-element-id="StartEvent_1_label" class="djs-element djs-shape" transform="matrix(1,0,0,1,195,158)" style="display: block;"><g class="djs-visual"><text class=" djs-label" transform="matrix(1,0,0,1,-15,0)" style="font-family: Arial, sans-serif; font-size: 11px;"><tspan x="15" y="10">start system</tspan></text></g><rect x="0" y="0" width="60" height="10" fill="none" stroke="#ffffff" style="stroke-opacity: 0; stroke-width: 15;" class="djs-hit"></rect><rect x="-6" y="-6" width="72" height="22" fill="none" class="djs-outline"></rect></g></g><g class="djs-group"><g data-element-id="Task_0hl4eqp" class="djs-element djs-shape" transform="matrix(1,0,0,1,240,285)" style="display: block;"><g class="djs-visual"><rect x="0" y="0" width="100" height="80" rx="10" ry="10" stroke="#000000" fill="#ffffff" style="stroke-width: 2;"></rect><text class=" djs-label" style="font-family: Arial, sans-serif; font-size: 12px;"><tspan x="14.5" y="37">initialize todo </tspan><tspan x="42" y="49">list </tspan></text></g><rect x="0" y="0" width="100" height="80" fill="none" stroke="#ffffff" style="stroke-opacity: 0; stroke-width: 15;" class="djs-hit"></rect><rect x="-6" y="-6" width="112" height="92" fill="none" class="djs-outline"></rect></g></g><g class="djs-group"><g data-element-id="Task_0ent490" class="djs-element djs-shape" transform="matrix(1,0,0,1,374,100)" style="display: block;"><g class="djs-visual"><rect x="0" y="0" width="100" height="80" rx="10" ry="10" stroke="#000000" fill="#ffffff" style="stroke-width: 2;"></rect><text class=" djs-label" style="font-family: Arial, sans-serif; font-size: 12px;"><tspan x="26" y="31">enter the </tspan><tspan x="8" y="43">description of a </tspan><tspan x="25" y="55">new todo </tspan></text></g><rect x="0" y="0" width="100" height="80" fill="none" stroke="#ffffff" style="stroke-opacity: 0; stroke-width: 15;" class="djs-hit"></rect><rect x="-6" y="-6" width="112" height="92" fill="none" class="djs-outline"></rect></g></g><g class="djs-group"><g data-element-id="Task_0qcdguq" class="djs-element djs-shape" transform="matrix(1,0,0,1,503,285)" style="display: block;"><g class="djs-visual"><rect x="0" y="0" width="100" height="80" rx="10" ry="10" stroke="#000000" fill="#ffffff" style="stroke-width: 2;"></rect><text class=" djs-label" style="font-family: Arial, sans-serif; font-size: 12px;"><tspan x="14" y="37">save the new </tspan><tspan x="38" y="49">todo </tspan></text></g><rect x="0" y="0" width="100" height="80" fill="none" stroke="#ffffff" style="stroke-opacity: 0; stroke-width: 15;" class="djs-hit"></rect><rect x="-6" y="-6" width="112" height="92" fill="none" class="djs-outline"></rect></g></g><g class="djs-group"><g data-element-id="Task_1e2mcpf" class="djs-element djs-shape" transform="matrix(1,0,0,1,641,285)" style="display: block;"><g class="djs-visual"><rect x="0" y="0" width="100" height="80" rx="10" ry="10" stroke="#000000" fill="#ffffff" style="stroke-width: 2;"></rect><text class=" djs-label" style="font-family: Arial, sans-serif; font-size: 12px;"><tspan x="7.5" y="37">update the todo </tspan><tspan x="42" y="49">list </tspan></text></g><rect x="0" y="0" width="100" height="80" fill="none" stroke="#ffffff" style="stroke-opacity: 0; stroke-width: 15;" class="djs-hit"></rect><rect x="-6" y="-6" width="112" height="92" fill="none" class="djs-outline"></rect></g></g><g class="djs-group"><g data-element-id="EndEvent_00mtlw3" transform="matrix(1,0,0,1,811,307)" class="djs-element djs-shape" style="display: block;"><g class="djs-visual"><circle cx="18" cy="18" r="18" stroke="#000000" fill="#ffffff" style="stroke-width: 4;"></circle></g><rect x="0" y="0" width="36" height="36" fill="none" stroke="#ffffff" style="stroke-opacity: 0; stroke-width: 15;" class="djs-hit"></rect><rect x="-6" y="-6" width="48" height="48" fill="none" class="djs-outline"></rect></g></g><g class="djs-group"><g data-element-id="EndEvent_00mtlw3_label" class="djs-element djs-shape" transform="matrix(1,0,0,1,829,343)" style="display: none;"><g class="djs-visual"><text class=" djs-label" transform="matrix(1,0,0,1,0,0)" style="font-family: Arial, sans-serif; font-size: 11px;"><tspan x="45" y="0"></tspan></text></g><rect x="0" y="0" width="0" height="0" fill="none" stroke="#ffffff" style="stroke-opacity: 0; stroke-width: 15;" class="djs-hit"></rect><rect x="-6" y="-6" width="12" height="12" fill="none" class="djs-outline"></rect></g></g><g class="djs-group"><g data-element-id="SequenceFlow_1q1wnn6" class="djs-element djs-connection" style="display: block;"><g class="djs-visual"><path d="m  243,140L290,140 L290,285 " fill="none" stroke="#000000" style="stroke-width: 2; stroke-linejoin: round; marker-end: url(&quot;#markerSiswudza99&quot;);"></path></g><polyline points="243,140 290,140 290,285 " fill="none" stroke="#ffffff" style="stroke-opacity: 0; stroke-width: 15;" class="djs-hit"></polyline><rect x="237" y="134" width="59" height="157" fill="none" class="djs-outline"></rect></g></g><g class="djs-group"><g data-element-id="SequenceFlow_1q1wnn6_label" class="djs-element djs-shape" transform="matrix(1,0,0,1,257,196)" style="display: none;"><g class="djs-visual"><text class=" djs-label" transform="matrix(1,0,0,1,0,0)" style="font-family: Arial, sans-serif; font-size: 11px;"><tspan x="45" y="0"></tspan></text></g><rect x="0" y="0" width="0" height="0" fill="none" stroke="#ffffff" style="stroke-opacity: 0; stroke-width: 15;" class="djs-hit"></rect><rect x="-6" y="-6" width="12" height="12" fill="none" class="djs-outline"></rect></g></g><g class="djs-group"><g data-element-id="SequenceFlow_0eyccr8" class="djs-element djs-connection" style="display: block;"><g class="djs-visual"><path d="m  340,325L357,325 L357,140 L374,140 " fill="none" stroke="#000000" style="stroke-width: 2; stroke-linejoin: round; marker-end: url(&quot;#markerSiswudza99&quot;);"></path></g><polyline points="340,325 357,325 357,140 374,140 " fill="none" stroke="#ffffff" style="stroke-opacity: 0; stroke-width: 15;" class="djs-hit"></polyline><rect x="334" y="134" width="46" height="197" fill="none" class="djs-outline"></rect></g></g><g class="djs-group"><g data-element-id="SequenceFlow_0eyccr8_label" class="djs-element djs-shape" transform="matrix(1,0,0,1,357,223)" style="display: none;"><g class="djs-visual"><text class=" djs-label" transform="matrix(1,0,0,1,0,0)" style="font-family: Arial, sans-serif; font-size: 11px;"><tspan x="45" y="0"></tspan></text></g><rect x="0" y="0" width="0" height="0" fill="none" stroke="#ffffff" style="stroke-opacity: 0; stroke-width: 15;" class="djs-hit"></rect><rect x="-6" y="-6" width="12" height="12" fill="none" class="djs-outline"></rect></g></g><g class="djs-group"><g data-element-id="SequenceFlow_108q2mi" class="djs-element djs-connection" style="display: block;"><g class="djs-visual"><path d="m  474,140L489,140 L489,325 L503,325 " fill="none" stroke="#000000" style="stroke-width: 2; stroke-linejoin: round; marker-end: url(&quot;#markerSiswudza99&quot;);"></path></g><polyline points="474,140 489,140 489,325 503,325 " fill="none" stroke="#ffffff" style="stroke-opacity: 0; stroke-width: 15;" class="djs-hit"></polyline><rect x="468" y="134" width="41" height="197" fill="none" class="djs-outline"></rect></g></g><g class="djs-group"><g data-element-id="SequenceFlow_108q2mi_label" class="djs-element djs-shape" transform="matrix(1,0,0,1,488,223)" style="display: none;"><g class="djs-visual"><text class=" djs-label" transform="matrix(1,0,0,1,0,0)" style="font-family: Arial, sans-serif; font-size: 11px;"><tspan x="45" y="0"></tspan></text></g><rect x="0" y="0" width="0" height="0" fill="none" stroke="#ffffff" style="stroke-opacity: 0; stroke-width: 15;" class="djs-hit"></rect><rect x="-6" y="-6" width="12" height="12" fill="none" class="djs-outline"></rect></g></g><g class="djs-group"><g data-element-id="SequenceFlow_0cx7gpc" class="djs-element djs-connection" style="display: block;"><g class="djs-visual"><path d="m  603,325L641,325 " fill="none" stroke="#000000" style="stroke-width: 2; stroke-linejoin: round; marker-end: url(&quot;#markerSiswudza99&quot;);"></path></g><polyline points="603,325 641,325 " fill="none" stroke="#ffffff" style="stroke-opacity: 0; stroke-width: 15;" class="djs-hit"></polyline><rect x="597" y="319" width="50" height="12" fill="none" class="djs-outline"></rect></g></g><g class="djs-group"><g data-element-id="SequenceFlow_0cx7gpc_label" class="djs-element djs-shape" transform="matrix(1,0,0,1,622,315)" style="display: none;"><g class="djs-visual"><text class=" djs-label" transform="matrix(1,0,0,1,0,0)" style="font-family: Arial, sans-serif; font-size: 11px;"><tspan x="45" y="0"></tspan></text></g><rect x="0" y="0" width="0" height="0" fill="none" stroke="#ffffff" style="stroke-opacity: 0; stroke-width: 15;" class="djs-hit"></rect><rect x="-6" y="-6" width="12" height="12" fill="none" class="djs-outline"></rect></g></g><g class="djs-group"><g data-element-id="SequenceFlow_1jswo7s" class="djs-element djs-connection" style="display: block;"><g class="djs-visual"><path d="m  741,325L811,325 " fill="none" stroke="#000000" style="stroke-width: 2; stroke-linejoin: round; marker-end: url(&quot;#markerSiswudza99&quot;);"></path></g><polyline points="741,325 811,325 " fill="none" stroke="#ffffff" style="stroke-opacity: 0; stroke-width: 15;" class="djs-hit"></polyline><rect x="735" y="319" width="82" height="12" fill="none" class="djs-outline"></rect></g></g><g class="djs-group"><g data-element-id="SequenceFlow_1jswo7s_label" class="djs-element djs-shape" transform="matrix(1,0,0,1,776,315)" style="display: none;"><g class="djs-visual"><text class=" djs-label" transform="matrix(1,0,0,1,0,0)" style="font-family: Arial, sans-serif; font-size: 11px;"><tspan x="45" y="0"></tspan></text></g><rect x="0" y="0" width="0" height="0" fill="none" stroke="#ffffff" style="stroke-opacity: 0; stroke-width: 15;" class="djs-hit"></rect><rect x="-6" y="-6" width="12" height="12" fill="none" class="djs-outline"></rect></g></g></g></g></svg>